<svg id="Layer_1" data-name="Layer 1" xmlns="http://www.w3.org/2000/svg" viewBox="0 0 46.4 46.4"><defs><style>.cls-1{fill:#1da1f2;}.cls-2{fill:#f58220;}.cls-3{fill:#df173a;}.cls-4{fill:#40e07e;}</style></defs><title>complex-smm</title><path class="cls-1" d="M36,23.2A12.8,12.8,0,0,1,23.2,36V46.4A23.2,23.2,0,1,0,23.2,0V10.4A12.8,12.8,0,0,1,36,23.2Zm0,0"/><path class="cls-2" d="M23.2,46.4a23.12,23.12,0,0,0,16.41-6.79l-7.36-7.36a12.8,12.8,0,0,1-18.1,0L6.8,39.61A23.11,23.11,0,0,0,23.2,46.4Zm0,0"/><path class="cls-3" d="M10.4,23.2A12.8,12.8,0,0,1,23.2,10.4V0A23.2,23.2,0,0,0,6.8,39.61l7.35-7.36A12.76,12.76,0,0,1,10.4,23.2Zm0,0"/><circle class="cls-4" cx="23.2" cy="23.2" r="6"/></svg>