<svg xmlns="http://www.w3.org/2000/svg" xmlns:xlink="http://www.w3.org/1999/xlink" width="252.71" height="252.71" viewBox="0 0 252.71 252.71"><defs><linearGradient id="a" x1="14.57" y1="238.14" x2="238.14" y2="14.57" gradientUnits="userSpaceOnUse"><stop offset="0" stop-color="#f8d702"/><stop offset="0.36" stop-color="#f74000"/><stop offset="0.67" stop-color="#c5296e"/><stop offset="1" stop-color="#7a38ab"/></linearGradient></defs><title>Asset 1</title><path d="M176.29,47.51H76.42A29,29,0,0,0,47.51,76.42v99.88a29,29,0,0,0,28.91,28.91h99.88a29,29,0,0,0,28.91-28.91V76.42a29,29,0,0,0-28.91-28.91ZM126.35,178.27a51.92,51.92,0,1,1,51.92-51.92,52,52,0,0,1-51.92,51.92Zm53.59-93.09a12.29,12.29,0,1,1,12.28-12.29,12.3,12.3,0,0,1-12.28,12.29Zm0,0-53.59,11.2a30,30,0,1,0,30,30,30,30,0,0,0-30-30Zm0,0M0,49.76V203a49.76,49.76,0,0,0,49.76,49.76H203A49.76,49.76,0,0,0,252.71,203V49.76A49.76,49.76,0,0,0,203,0H49.76A49.76,49.76,0,0,0,0,49.76ZM227.14,176.29a50.9,50.9,0,0,1-50.85,50.85H76.42a50.9,50.9,0,0,1-50.85-50.85V76.42A50.9,50.9,0,0,1,76.42,25.57h99.88a50.9,50.9,0,0,1,50.85,50.85Zm0,0" style="fill:url(#a)"/></svg>