<svg xmlns="http://www.w3.org/2000/svg" width="55.532" height="31.84" viewBox="0 0 55.532 31.84">
  <defs>
    <style>
      .cls-1 {
        fill: #44678d;
        fill-rule: evenodd;
      }
    </style>
  </defs>
  <path id="vk-logo" class="cls-1" d="M393.247,1115.12a3.6,3.6,0,0,0-.188-0.36,28.824,28.824,0,0,0-5.518-6.43l-0.058-.05-0.028-.03-0.03-.03H387.4c-1.232-1.18-2.013-1.98-2.339-2.38a2.255,2.255,0,0,1-.406-2.36,22.027,22.027,0,0,1,2.6-3.81c0.79-1.02,1.417-1.85,1.879-2.47q5-6.675,4.337-8.54l-0.173-.29a1.611,1.611,0,0,0-.895-0.48,4.395,4.395,0,0,0-1.85-.07l-8.322.06a1.032,1.032,0,0,0-.579.01l-0.375.09-0.145.07-0.115.09a1.421,1.421,0,0,0-.318.3,2.176,2.176,0,0,0-.288.51,46.917,46.917,0,0,1-3.094,6.54c-0.713,1.2-1.368,2.24-1.966,3.13a14.628,14.628,0,0,1-1.5,1.94,11.238,11.238,0,0,1-1.1,1.01,1.109,1.109,0,0,1-.752.32c-0.173-.04-0.336-0.08-0.491-0.12a1.891,1.891,0,0,1-.65-0.71,3.222,3.222,0,0,1-.332-1.13c-0.057-.46-0.091-0.85-0.1-1.18s-0.005-.8.015-1.4,0.029-1.01.029-1.22q0-1.1.043-2.4c0.03-.86.053-1.54,0.074-2.05s0.028-1.03.029-1.59a6.782,6.782,0,0,0-.1-1.33,4.651,4.651,0,0,0-.3-0.93,1.521,1.521,0,0,0-.592-0.69,3.261,3.261,0,0,0-.968-0.4,19.391,19.391,0,0,0-3.9-.37q-5.375-.06-6.907.7a3.794,3.794,0,0,0-1.1.87c-0.347.42-.4,0.66-0.145,0.7a3.548,3.548,0,0,1,2.456,1.24l0.173,0.35a5.7,5.7,0,0,1,.4,1.34,13.563,13.563,0,0,1,.26,2.12,22.727,22.727,0,0,1,0,3.63c-0.1,1.01-.188,1.8-0.275,2.36a4.808,4.808,0,0,1-.39,1.37c-0.174.34-.289,0.56-0.347,0.64a0.616,0.616,0,0,1-.145.14,2.085,2.085,0,0,1-.78.15,1.848,1.848,0,0,1-.983-0.41,6.7,6.7,0,0,1-1.2-1.12,14.687,14.687,0,0,1-1.4-1.99c-0.52-.85-1.06-1.86-1.618-3.02l-0.462-.85c-0.29-.54-0.684-1.33-1.184-2.36s-0.944-2.04-1.329-3.01a1.887,1.887,0,0,0-.693-0.93l-0.145-.09a1.945,1.945,0,0,0-.462-0.25,2.968,2.968,0,0,0-.665-0.18l-7.918.06a2,2,0,0,0-1.647.55l-0.116.17a0.954,0.954,0,0,0-.087.47,2.334,2.334,0,0,0,.173.78q1.733,4.1,3.77,7.91c1.358,2.53,2.537,4.58,3.539,6.13s2.022,3.01,3.061,4.39,1.729,2.25,2.066,2.64,0.6,0.68.795,0.87l0.722,0.7a16.758,16.758,0,0,0,2.037,1.67,34.571,34.571,0,0,0,2.976,1.92,16.189,16.189,0,0,0,3.8,1.54,13.194,13.194,0,0,0,4.219.48h3.324a2.341,2.341,0,0,0,1.531-.64l0.115-.15a1.892,1.892,0,0,0,.217-0.54,2.949,2.949,0,0,0,.1-0.8,9.625,9.625,0,0,1,.188-2.25,5.939,5.939,0,0,1,.492-1.51,3.9,3.9,0,0,1,.622-0.86,2.664,2.664,0,0,1,.491-0.42,1.721,1.721,0,0,1,.231-0.1,1.827,1.827,0,0,1,1.633.45,10.02,10.02,0,0,1,1.763,1.68c0.549,0.67,1.209,1.43,1.979,2.26a13.891,13.891,0,0,0,2.022,1.86l0.578,0.35a7.49,7.49,0,0,0,1.5.64,3.218,3.218,0,0,0,1.618.14l7.4-.12a3.358,3.358,0,0,0,1.7-.36,1.434,1.434,0,0,0,.723-0.8,2.286,2.286,0,0,0,.015-0.99A3.757,3.757,0,0,0,393.247,1115.12Z" transform="translate(-338.031 -1086.38)"/>
</svg>